<svg width="41" height="41" viewBox="0 0 41 41" fill="none" xmlns="http://www.w3.org/2000/svg">
<path d="M20.4839 0C26.4805 0 32.4772 0 38.4738 0C40.0234 0 41 0.97619 41 2.52996C41 14.5127 41 26.4954 41 38.4782C41 40.0075 40.0234 41 38.5142 41C26.5047 41 14.4953 41 2.48583 41C0.992716 41 0 40.0075 0 38.5107C0 26.5036 0 14.4964 0 2.48115C0 0.984325 0.992716 0 2.48583 0C8.48248 0 14.4872 0 20.4839 0ZM20.5 39.8611C26.4724 39.8611 32.4449 39.8611 38.4173 39.8611C39.41 39.8611 39.8701 39.3974 39.8701 38.3968C39.8701 26.4629 39.8701 14.5371 39.8701 2.60317C39.8701 1.60258 39.41 1.13889 38.4173 1.13889C26.4724 1.13889 14.5276 1.13889 2.58268 1.13889C1.58996 1.13889 1.12992 1.60258 1.12992 2.60317C1.12992 14.5371 1.12992 26.4629 1.12992 38.3968C1.12992 39.3974 1.58996 39.8611 2.58268 39.8611C8.55512 39.8611 14.5276 39.8611 20.5 39.8611Z" fill="white"/>
<path d="M23.1555 20.4836C23.1555 25.7795 23.1555 30.994 23.1555 36.2654C22.9941 36.2735 22.8569 36.2979 22.7116 36.2979C20.6374 36.2979 18.5713 36.2898 16.4971 36.3061C16.1097 36.3061 16.037 36.1759 16.037 35.818C16.0451 30.8963 16.0451 25.9747 16.0451 21.0531C16.0451 20.8823 16.0451 20.7114 16.0451 20.4999C14.8829 20.4999 13.7691 20.4999 12.623 20.4999C12.623 18.7184 12.623 16.9612 12.623 15.1634C13.753 15.1634 14.8748 15.1634 16.0451 15.1634C16.0451 14.9682 16.0451 14.8217 16.0451 14.6753C16.0451 13.3086 16.029 11.9338 16.0532 10.5672C16.0774 8.78562 16.6504 7.24813 18.0951 6.12551C19.112 5.33642 20.3065 4.889 21.5575 4.82392C23.8012 4.71003 26.0449 4.71816 28.2886 4.67749C28.4823 4.67749 28.5953 4.7263 28.5872 4.94594C28.5792 6.67055 28.5791 8.38701 28.5711 10.1116C28.5711 10.136 28.5549 10.1604 28.5146 10.2418C28.3935 10.2418 28.2563 10.2418 28.111 10.2418C27.0053 10.2418 25.9077 10.2418 24.802 10.2418C23.8012 10.2499 23.1717 10.8926 23.1717 11.885C23.1717 12.9507 23.1717 14.0245 23.1717 15.139C24.9795 15.139 26.7471 15.139 28.6195 15.139C28.3935 16.9531 28.1756 18.7021 27.9496 20.4918C26.3354 20.4836 24.7697 20.4836 23.1555 20.4836Z" fill="white"/>
</svg>
