<svg width="41" height="41" viewBox="0 0 41 41" fill="none" xmlns="http://www.w3.org/2000/svg">
<path d="M12.1403 38.3949L12.1394 38.3948C8.52484 38.3344 5.57688 36.7829 3.63927 33.6134L12.1403 38.3949ZM12.1403 38.3949C16.5813 38.461 21.0283 38.4425 25.4709 38.424C26.5807 38.4194 27.6903 38.4147 28.7994 38.4114M12.1403 38.3949L32.9317 37.4954M32.9317 37.4954L32.9312 37.4957C31.6289 38.1159 30.2327 38.4114 28.7994 38.4114M32.9317 37.4954C34.6693 36.6656 36.0551 35.5747 37.0026 34.1663C37.9523 32.7549 38.4393 31.0577 38.4307 29.0556L38.4307 29.0549M32.9317 37.4954L38.4307 29.0549M28.7994 38.4114C28.7993 38.4114 28.7993 38.4114 28.7992 38.4114V37.9114L28.8007 38.4114C28.8003 38.4114 28.7998 38.4114 28.7994 38.4114ZM38.4307 29.0549C38.4075 24.9519 38.4127 20.8499 38.4179 16.7458C38.4202 14.9864 38.4224 13.2265 38.4224 11.466C38.4224 9.70527 37.9207 8.08062 36.8709 6.65225L36.8699 6.65095M38.4307 29.0549L36.8699 6.65095M36.8699 6.65095C34.8718 3.95073 32.0942 2.61797 28.8052 2.58318M36.8699 6.65095L28.8052 2.58318M2.52484 11.9542L2.52478 11.9525C2.38422 7.46599 5.39601 4.43715 8.58505 3.25054L2.52484 11.9542ZM2.52484 11.9542C2.59388 13.9437 2.57837 15.9229 2.56278 17.9134C2.55606 18.7707 2.54933 19.63 2.54933 20.4932V20.5109M2.52484 11.9542L2.54933 20.5109M2.54933 20.5109V20.5287M2.54933 20.5109V20.5287M2.54933 20.5287V20.5464M2.54933 20.5287V20.5464M2.54933 20.5464V20.5642M2.54933 20.5464V20.5642M2.54933 20.5642V20.582M2.54933 20.5642V20.582M2.54933 20.582V20.5997M2.54933 20.582V20.5997M2.54933 20.5997V20.6175M2.54933 20.5997V20.6175M2.54933 20.6175V20.6352M2.54933 20.6175V20.6352M2.54933 20.6352V20.653M2.54933 20.6352V20.653M2.54933 20.653V20.6707M2.54933 20.653V20.6707M2.54933 20.6707V20.6885M2.54933 20.6707V20.6885M2.54933 20.6885V20.7063M2.54933 20.6885V20.7063M2.54933 20.7063V20.724M2.54933 20.7063V20.724M2.54933 20.724V20.7418M2.54933 20.724V20.7418M2.54933 20.7418V20.7595M2.54933 20.7418V20.7595M2.54933 20.7595V20.7773M2.54933 20.7595V20.7773M2.54933 20.7773V20.7951M2.54933 20.7773V20.7951M2.54933 20.7951V20.8128M2.54933 20.7951V20.8128M2.54933 20.8128V20.8306M2.54933 20.8128V20.8306M2.54933 20.8306V20.8483M2.54933 20.8306V20.8483M2.54933 20.8483V20.8661M2.54933 20.8483V20.8661M2.54933 20.8661V20.8838M2.54933 20.8661V20.8838M2.54933 20.8838V20.9016M2.54933 20.8838V20.9016M2.54933 20.9016V20.9193M2.54933 20.9016V20.9193M2.54933 20.9193V20.9371M2.54933 20.9193V20.9371M2.54933 20.9371V20.9549M2.54933 20.9371V20.9549M2.54933 20.9549V20.9726M2.54933 20.9549V20.9726M2.54933 20.9726V20.9904M2.54933 20.9726V20.9904M2.54933 20.9904V21.0081M2.54933 20.9904V21.0081M2.54933 21.0081V21.0259M2.54933 21.0081V21.0259M2.54933 21.0259V21.0436M2.54933 21.0259V21.0436M2.54933 21.0436V21.0614M2.54933 21.0436V21.0614M2.54933 21.0614V21.0791M2.54933 21.0614V21.0791M2.54933 21.0791V21.0969M2.54933 21.0791V21.0969M2.54933 21.0969V21.1147M2.54933 21.0969V21.1147M2.54933 21.1147V21.1324M2.54933 21.1147V21.1324M2.54933 21.1324V21.1502M2.54933 21.1324V21.1502M2.54933 21.1502V21.1679M2.54933 21.1502V21.1679M2.54933 21.1679V21.1857M2.54933 21.1679V21.1857M2.54933 21.1857V21.2034M2.54933 21.1857V21.2034M2.54933 21.2034V21.2212M2.54933 21.2034V21.2212M2.54933 21.2212V21.2389M2.54933 21.2212V21.2389M2.54933 21.2389V21.2567M2.54933 21.2389V21.2567M2.54933 21.2567V21.2744M2.54933 21.2567V21.2744M2.54933 21.2744V21.2922M2.54933 21.2744V21.2922M2.54933 21.2922V21.3099M2.54933 21.2922V21.3099M2.54933 21.3099V21.3277M2.54933 21.3099V21.3277M2.54933 21.3277V21.3454M2.54933 21.3277V21.3454M2.54933 21.3454V21.3632M2.54933 21.3454V21.3632M2.54933 21.3632V21.3809M2.54933 21.3632V21.3809M2.54933 21.3809V21.3987M2.54933 21.3809V21.3987M2.54933 21.3987V21.4164M2.54933 21.3987V21.4164M2.54933 21.4164V21.4342M2.54933 21.4164V21.4342M2.54933 21.4342V21.4519M2.54933 21.4342V21.4519M2.54933 21.4519V21.4697M2.54933 21.4519V21.4697M2.54933 21.4697V21.4874M2.54933 21.4697V21.4874M2.54933 21.4874V21.5052M2.54933 21.4874V21.5052M2.54933 21.5052V21.523M2.54933 21.5052V21.523M2.54933 21.523V21.5407M2.54933 21.523V21.5407M2.54933 21.5407V21.5585M2.54933 21.5407V21.5585M2.54933 21.5585V21.5762M2.54933 21.5585V21.5762M2.54933 21.5762V21.594M2.54933 21.5762V21.594M2.54933 21.594V21.6117M2.54933 21.594V21.6117M2.54933 21.6117V21.6295M2.54933 21.6117V21.6295M2.54933 21.6295V21.6472M2.54933 21.6295V21.6472M2.54933 21.6472V21.6649M2.54933 21.6472V21.6649M2.54933 21.6649V21.6827M2.54933 21.6649V21.6827M2.54933 21.6827V21.7004M2.54933 21.6827V21.7004M2.54933 21.7004V21.7182M2.54933 21.7004V21.7182M2.54933 21.7182V21.7359M2.54933 21.7182V21.7359M2.54933 21.7359V21.7537M2.54933 21.7359V21.7537M2.54933 21.7537V21.7714M2.54933 21.7537V21.7714M2.54933 21.7714V21.7892M2.54933 21.7714V21.7892M2.54933 21.7892V21.8069M2.54933 21.7892V21.8069M2.54933 21.8069V21.8247M2.54933 21.8069V21.8247M2.54933 21.8247V21.8424M2.54933 21.8247V21.8424M2.54933 21.8424V21.8602M2.54933 21.8424V21.8602M2.54933 21.8602V21.8779M2.54933 21.8602V21.8779M2.54933 21.8779V21.8957M2.54933 21.8779V21.8957M2.54933 21.8957V21.9134M2.54933 21.8957V21.9134M2.54933 21.9134V21.9312M2.54933 21.9134V21.9312M2.54933 21.9312V21.9489M2.54933 21.9312V21.9489M2.54933 21.9489V21.9667M2.54933 21.9489V21.9667M2.54933 21.9667V21.9844M2.54933 21.9667V21.9844M2.54933 21.9844V22.0022M2.54933 21.9844V22.0022M2.54933 22.0022V22.0199M2.54933 22.0022V22.0199M2.54933 22.0199V22.0377M2.54933 22.0199V22.0377M2.54933 22.0377V22.0554M2.54933 22.0377V22.0554M2.54933 22.0554V22.0731M2.54933 22.0554V22.0731M2.54933 22.0731V22.0909M2.54933 22.0731V22.0909M2.54933 22.0909V22.1086M2.54933 22.0909V22.1086M2.54933 22.1086V22.1264M2.54933 22.1086V22.1264M2.54933 22.1264V22.1441M2.54933 22.1264V22.1441M2.54933 22.1441V22.1619M2.54933 22.1441V22.1619M2.54933 22.1619V22.1796M2.54933 22.1619V22.1796M2.54933 22.1796V22.1974M2.54933 22.1796V22.1974M2.54933 22.1974V22.2151M2.54933 22.1974V22.2151M2.54933 22.2151V22.2329M2.54933 22.2151V22.2329M2.54933 22.2329V22.2506M2.54933 22.2329V22.2506M2.54933 22.2506V22.2683M2.54933 22.2506V22.2683M2.54933 22.2683V22.2861M2.54933 22.2683V22.2861M2.54933 22.2861V22.3038M2.54933 22.2861V22.3038M2.54933 22.3038V22.3216M2.54933 22.3038V22.3216M2.54933 22.3216V22.3393M2.54933 22.3216V22.3393M2.54933 22.3393V22.3571M2.54933 22.3393V22.3571M2.54933 22.3571V22.3748M2.54933 22.3571V22.3748M2.54933 22.3748V22.3926M2.54933 22.3748V22.3926M2.54933 22.3926V22.4103M2.54933 22.3926V22.4103M2.54933 22.4103V22.428M2.54933 22.4103V22.428M2.54933 22.428V22.4458M2.54933 22.428V22.4458M2.54933 22.4458V22.4635M2.54933 22.4458V22.4635M2.54933 22.4635V22.4813M2.54933 22.4635V22.4813M2.54933 22.4813V22.499M2.54933 22.4813V22.499M2.54933 22.499V22.5168M2.54933 22.499V22.5168M2.54933 22.5168V22.5345M2.54933 22.5168V22.5345M2.54933 22.5345V22.5523M2.54933 22.5345V22.5523M2.54933 22.5523V22.57M2.54933 22.5523V22.57M2.54933 22.57V22.5877M2.54933 22.57V22.5877M2.54933 22.5877V22.6055M2.54933 22.5877V22.6055M2.54933 22.6055V22.6232M2.54933 22.6055V22.6232M2.54933 22.6232V22.641M2.54933 22.6232V22.641M2.54933 22.641V22.6587M2.54933 22.641V22.6587M2.54933 22.6587V22.6765M2.54933 22.6587V22.6765M2.54933 22.6765V22.6942M2.54933 22.6765V22.6942M2.54933 22.6942V22.7119M2.54933 22.6942V22.7119M2.54933 22.7119V22.7297M2.54933 22.7119V22.7297M2.54933 22.7297V22.7474M2.54933 22.7297V22.7474M2.54933 22.7474V22.7652M2.54933 22.7474V22.7652M2.54933 22.7652V22.7829M2.54933 22.7652V22.7829M2.54933 22.7829V22.8006M2.54933 22.7829V22.8006M2.54933 22.8006V22.8184M2.54933 22.8006V22.8184M2.54933 22.8184V22.8361M2.54933 22.8184V22.8361M2.54933 22.8361V22.8539M2.54933 22.8361V22.8539M2.54933 22.8539V22.8716M2.54933 22.8539V22.8716M2.54933 22.8716V22.8894M2.54933 22.8716V22.8894M2.54933 22.8894V22.9071M2.54933 22.8894V22.9071M2.54933 22.9071V22.9248M2.54933 22.9071V22.9248M2.54933 22.9248V22.9426M2.54933 22.9248V22.9426M2.54933 22.9426V22.9603M2.54933 22.9426V22.9603M2.54933 22.9603V22.9781M2.54933 22.9603V22.9781M2.54933 22.9781V22.9958M2.54933 22.9781V22.9958M2.54933 22.9958V23.0135M2.54933 22.9958V23.0135M2.54933 23.0135V23.0313M2.54933 23.0135V23.0313M2.54933 23.0313V23.049M2.54933 23.0313V23.049M2.54933 23.049V23.0668M2.54933 23.049V23.0668M2.54933 23.0668V23.0845M2.54933 23.0668V23.0845M2.54933 23.0845V23.1022M2.54933 23.0845V23.1022M2.54933 23.1022V23.12M2.54933 23.1022V23.12M2.54933 23.12V23.1377M2.54933 23.12V23.1377M2.54933 23.1377V23.1555M2.54933 23.1377V23.1555M2.54933 23.1555V23.1732M2.54933 23.1555V23.1732M2.54933 23.1732V23.1909M2.54933 23.1732V23.1909M2.54933 23.1909V23.2087M2.54933 23.1909V23.2087M2.54933 23.2087V23.2264M2.54933 23.2087V23.2264M2.54933 23.2264V23.2442M2.54933 23.2264V23.2442M2.54933 23.2442V23.2619M2.54933 23.2442V23.2619M2.54933 23.2619V23.2796M2.54933 23.2619V23.2796M2.54933 23.2796V23.2974M2.54933 23.2796V23.2974M2.54933 23.2974V23.3151M2.54933 23.2974V23.3151M2.54933 23.3151V23.3329M2.54933 23.3151V23.3329M2.54933 23.3329V23.3506M2.54933 23.3329V23.3506M2.54933 23.3506V23.3683M2.54933 23.3506V23.3683M2.54933 23.3683V23.3861M2.54933 23.3683V23.3861M2.54933 23.3861V23.4038M2.54933 23.3861V23.4038M2.54933 23.4038V23.4216M2.54933 23.4038V23.4216M2.54933 23.4216V23.4393M2.54933 23.4216V23.4393M2.54933 23.4393V23.457M2.54933 23.4393V23.457M2.54933 23.457V23.4748M2.54933 23.457V23.4748M2.54933 23.4748V23.4925M2.54933 23.4748V23.4925M2.54933 23.4925V23.5103M2.54933 23.4925V23.5103M2.54933 23.5103V23.528M2.54933 23.5103V23.528M2.54933 23.528V23.5457M2.54933 23.528V23.5457M2.54933 23.5457V23.5635M2.54933 23.5457V23.5635M2.54933 23.5635V23.5812M2.54933 23.5635V23.5812M2.54933 23.5812V23.5989M2.54933 23.5812V23.5989M2.54933 23.5989V23.6167M2.54933 23.5989V23.6167M2.54933 23.6167V23.6344M2.54933 23.6167V23.6344M2.54933 23.6344V23.6522M2.54933 23.6344V23.6522M2.54933 23.6522V23.6699M2.54933 23.6522V23.6699M2.54933 23.6699V23.6876M2.54933 23.6699V23.6876M2.54933 23.6876V23.7054M2.54933 23.6876V23.7054M2.54933 23.7054V23.7231M2.54933 23.7054V23.7231M2.54933 23.7231V23.7408M2.54933 23.7231V23.7408M2.54933 23.7408V23.7586M2.54933 23.7408V23.7586M2.54933 23.7586V23.7763M2.54933 23.7586V23.7763M2.54933 23.7763V23.7941M2.54933 23.7763V23.7941M2.54933 23.7941V23.8118M2.54933 23.7941V23.8118M2.54933 23.8118V23.8295M2.54933 23.8118V23.8295M2.54933 23.8295V23.8473M2.54933 23.8295V23.8473M2.54933 23.8473V23.865M2.54933 23.8473V23.865M2.54933 23.865V23.8828M2.54933 23.865V23.8828M2.54933 23.8828V23.9005M2.54933 23.8828V23.9005M2.54933 23.9005V23.9182M2.54933 23.9005V23.9182M2.54933 23.9182V23.936M2.54933 23.9182V23.936M2.54933 23.936V23.9537M2.54933 23.936V23.9537M2.54933 23.9537V23.9714M2.54933 23.9537V23.9714M2.54933 23.9714V23.9892M2.54933 23.9714V23.9892M2.54933 23.9892V24.0069M2.54933 23.9892V24.0069M2.54933 24.0069V24.0246M2.54933 24.0069V24.0246M2.54933 24.0246V24.0424M2.54933 24.0246V24.0424M2.54933 24.0424V24.0601M2.54933 24.0424V24.0601M2.54933 24.0601V24.0779M2.54933 24.0601V24.0779M2.54933 24.0779V24.0956M2.54933 24.0779V24.0956M2.54933 24.0956V24.1133M2.54933 24.0956V24.1133M2.54933 24.1133V24.1311M2.54933 24.1133V24.1311M2.54933 24.1311V24.1488M2.54933 24.1311V24.1488M2.54933 24.1488V24.1665M2.54933 24.1488V24.1665M2.54933 24.1665V24.1843M2.54933 24.1665V24.1843M2.54933 24.1843V24.202M2.54933 24.1843V24.202M2.54933 24.202V24.2198M2.54933 24.202V24.2198M2.54933 24.2198V24.2375M2.54933 24.2198V24.2375M2.54933 24.2375V24.2552M2.54933 24.2375V24.2552M2.54933 24.2552V24.273M2.54933 24.2552V24.273M2.54933 24.273V24.2907M2.54933 24.273V24.2907M2.54933 24.2907V24.3084M2.54933 24.2907V24.3084M2.54933 24.3084V24.3262M2.54933 24.3084V24.3262M2.54933 24.3262V24.3439M2.54933 24.3262V24.3439M2.54933 24.3439V24.3616M2.54933 24.3439V24.3616M2.54933 24.3616V24.3794M2.54933 24.3616V24.3794M2.54933 24.3794V24.3971M2.54933 24.3794V24.3971M2.54933 24.3971V24.4149M2.54933 24.3971V24.4149M2.54933 24.4149V24.4326M2.54933 24.4149V24.4326M2.54933 24.4326V24.4503M2.54933 24.4326V24.4503M2.54933 24.4503V24.4681M2.54933 24.4503V24.4681M2.54933 24.4681V24.4858M2.54933 24.4681V24.4858M2.54933 24.4858V24.5035M2.54933 24.4858V24.5035M2.54933 24.5035V24.5213M2.54933 24.5035V24.5213M2.54933 24.5213V24.539M2.54933 24.5213V24.539M2.54933 24.539V24.5567M2.54933 24.539V24.5567M2.54933 24.5567V24.5745M2.54933 24.5567V24.5745M2.54933 24.5745V24.5922M2.54933 24.5745V24.5922M2.54933 24.5922V24.61M2.54933 24.5922V24.61M2.54933 24.61V24.6277M2.54933 24.61V24.6277M2.54933 24.6277V24.6454M2.54933 24.6277V24.6454M2.54933 24.6454V24.6632M2.54933 24.6454V24.6632M2.54933 24.6632V24.6809M2.54933 24.6632V24.6809M2.54933 24.6809V24.6986M2.54933 24.6809V24.6986M2.54933 24.6986V24.7164M2.54933 24.6986V24.7164M2.54933 24.7164V24.7341M2.54933 24.7164V24.7341M2.54933 24.7341V24.7518M2.54933 24.7341V24.7518M2.54933 24.7518V24.7696M2.54933 24.7518V24.7696M2.54933 24.7696V24.7873M2.54933 24.7696V24.7873M2.54933 24.7873V24.8051M2.54933 24.7873V24.8051M2.54933 24.8051V24.8228M2.54933 24.8051V24.8228M2.54933 24.8228V24.8405M2.54933 24.8228V24.8405M2.54933 24.8405V24.8583M2.54933 24.8405V24.8583M2.54933 24.8583V24.876M2.54933 24.8583V24.876M2.54933 24.876V24.8937M2.54933 24.876V24.8937M2.54933 24.8937V24.9115M2.54933 24.8937V24.9115M2.54933 24.9115V24.9292M2.54933 24.9115V24.9292M2.54933 24.9292V24.9469M2.54933 24.9292V24.9469M2.54933 24.9469V24.9647M2.54933 24.9469V24.9647M2.54933 24.9647V24.9824M2.54933 24.9647V24.9824M2.54933 24.9824V25.0001M2.54933 24.9824V25.0001M2.54933 25.0001V25.0179M2.54933 25.0001V25.0179M2.54933 25.0179V25.0356M2.54933 25.0179V25.0356M2.54933 25.0356V25.0534M2.54933 25.0356V25.0534M2.54933 25.0534V25.0711M2.54933 25.0534V25.0711M2.54933 25.0711V25.0888M2.54933 25.0711V25.0888M2.54933 25.0888V25.1066M2.54933 25.0888V25.1066M2.54933 25.1066V25.1243M2.54933 25.1066V25.1243M2.54933 25.1243V25.142M2.54933 25.1243V25.142M2.54933 25.142V25.1598M2.54933 25.142V25.1598M2.54933 25.1598V25.1775M2.54933 25.1598V25.1775M2.54933 25.1775V25.1952M2.54933 25.1775V25.1952M2.54933 25.1952V25.213M2.54933 25.1952V25.213M2.54933 25.213V25.2307M2.54933 25.213V25.2307M2.54933 25.2307V25.2485M2.54933 25.2307V25.2485M2.54933 25.2485V25.2662M2.54933 25.2485V25.2662M2.54933 25.2662V25.2839M2.54933 25.2662V25.2839M2.54933 25.2839V25.3017M2.54933 25.2839V25.3017M2.54933 25.3017V25.3194M2.54933 25.3017V25.3194M2.54933 25.3194V25.3371M2.54933 25.3194V25.3371M2.54933 25.3371V25.3549M2.54933 25.3371V25.3549M2.54933 25.3549V25.3726M2.54933 25.3549V25.3726M2.54933 25.3726V25.3903M2.54933 25.3726V25.3903M2.54933 25.3903V25.4081M2.54933 25.3903V25.4081M2.54933 25.4081V25.4258M2.54933 25.4081V25.4258M2.54933 25.4258V25.4435M2.54933 25.4258V25.4435M2.54933 25.4435V25.4613M2.54933 25.4435V25.4613M2.54933 25.4613V25.479M2.54933 25.4613V25.479M2.54933 25.479V25.4968M2.54933 25.479V25.4968M2.54933 25.4968V25.5145M2.54933 25.4968V25.5145M2.54933 25.5145V25.5322M2.54933 25.5145V25.5322M2.54933 25.5322V25.55M2.54933 25.5322V25.55M2.54933 25.55V25.5677M2.54933 25.55V25.5677M2.54933 25.5677V25.5854M2.54933 25.5677V25.5854M2.54933 25.5854V25.6032M2.54933 25.5854V25.6032M2.54933 25.6032V25.6209M2.54933 25.6032V25.6209M2.54933 25.6209V25.6386M2.54933 25.6209V25.6386M2.54933 25.6386V25.6564M2.54933 25.6386V25.6564M2.54933 25.6564V25.6741M2.54933 25.6564V25.6741M2.54933 25.6741V25.6919M2.54933 25.6741V25.6919M2.54933 25.6919V25.7096M2.54933 25.6919V25.7096M2.54933 25.7096V25.7273M2.54933 25.7096V25.7273M2.54933 25.7273V25.7451M2.54933 25.7273V25.7451M2.54933 25.7451V25.7628M2.54933 25.7451V25.7628M2.54933 25.7628V25.7805M2.54933 25.7628V25.7805M2.54933 25.7805V25.7983M2.54933 25.7805V25.7983M2.54933 25.7983V25.816M2.54933 25.7983V25.816M2.54933 25.816V25.8337M2.54933 25.816V25.8337M2.54933 25.8337V25.8515M2.54933 25.8337V25.8515M2.54933 25.8515V25.8692M2.54933 25.8515V25.8692M2.54933 25.8692V25.887M2.54933 25.8692V25.887M2.54933 25.887V25.9047M2.54933 25.887V25.9047M2.54933 25.9047V25.9224M2.54933 25.9047V25.9224M2.54933 25.9224V25.9402M2.54933 25.9224V25.9402M2.54933 25.9402V25.9579M2.54933 25.9402V25.9579M2.54933 25.9579V25.9756M2.54933 25.9579V25.9756M2.54933 25.9756V25.9934M2.54933 25.9756V25.9934M2.54933 25.9934V26.0111M2.54933 25.9934V26.0111M2.54933 26.0111V26.0289M2.54933 26.0111V26.0289M2.54933 26.0289V26.0466M2.54933 26.0289V26.0466M2.54933 26.0466V26.0643M2.54933 26.0466V26.0643M2.54933 26.0643V26.0821M2.54933 26.0643V26.0821M2.54933 26.0821V26.0998M2.54933 26.0821V26.0998M2.54933 26.0998V26.1175M2.54933 26.0998V26.1175M2.54933 26.1175V26.1353M2.54933 26.1175V26.1353M2.54933 26.1353V26.153M2.54933 26.1353V26.153M2.54933 26.153V26.1708M2.54933 26.153V26.1708M2.54933 26.1708V26.1885M2.54933 26.1708V26.1885M2.54933 26.1885V26.2062M2.54933 26.1885V26.2062M2.54933 26.2062V26.224M2.54933 26.2062V26.224M2.54933 26.224V26.2417M2.54933 26.224V26.2417M2.54933 26.2417V26.2594M2.54933 26.2417V26.2594M2.54933 26.2594V26.2772M2.54933 26.2594V26.2772M2.54933 26.2772V26.2949M2.54933 26.2772V26.2949M2.54933 26.2949V26.3127M2.54933 26.2949V26.3127M2.54933 26.3127V26.3304M2.54933 26.3127V26.3304M2.54933 26.3304V26.3481M2.54933 26.3304V26.3481M2.54933 26.3481V26.3659M2.54933 26.3481V26.3659M2.54933 26.3659V26.3836M2.54933 26.3659V26.3836M2.54933 26.3836V26.4013M2.54933 26.3836V26.4013M2.54933 26.4013V26.4191M2.54933 26.4013V26.4191M2.54933 26.4191V26.4368M2.54933 26.4191V26.4368M2.54933 26.4368V26.4546M2.54933 26.4368V26.4546M2.54933 26.4546V26.4723M2.54933 26.4546V26.4723M2.54933 26.4723V26.49M2.54933 26.4723V26.49M2.54933 26.49V26.5078M2.54933 26.49V26.5078M2.54933 26.5078V26.5255M2.54933 26.5078V26.5255M2.54933 26.5255V26.5432M2.54933 26.5255V26.5432M2.54933 26.5432V26.561M2.54933 26.5432V26.561M2.54933 26.561V26.5787M2.54933 26.561V26.5787M2.54933 26.5787V26.5965M2.54933 26.5787V26.5965M2.54933 26.5965V26.6142M2.54933 26.5965V26.6142M2.54933 26.6142V26.6319M2.54933 26.6142V26.6319M2.54933 26.6319V26.6497M2.54933 26.6319V26.6497M2.54933 26.6497V26.6674M2.54933 26.6497V26.6674M2.54933 26.6674V26.6852M2.54933 26.6674V26.6852M2.54933 26.6852V26.7029M2.54933 26.6852V26.7029M2.54933 26.7029V26.7206M2.54933 26.7029V26.7206M2.54933 26.7206V26.7384M2.54933 26.7206V26.7384M2.54933 26.7384V26.7561M2.54933 26.7384V26.7561M2.54933 26.7561V26.7739M2.54933 26.7561V26.7739M2.54933 26.7739V26.7916M2.54933 26.7739V26.7916M2.54933 26.7916V26.8093M2.54933 26.7916V26.8093M2.54933 26.8093V26.8271M2.54933 26.8093V26.8271M2.54933 26.8271V26.8448M2.54933 26.8271V26.8448M2.54933 26.8448V26.8626M2.54933 26.8448V26.8626M2.54933 26.8626V26.8803M2.54933 26.8626V26.8803M2.54933 26.8803V26.898M2.54933 26.8803V26.898M2.54933 26.898V26.9158M2.54933 26.898V26.9158M2.54933 26.9158V26.9335M2.54933 26.9158V26.9335M2.54933 26.9335V26.9513M2.54933 26.9335V26.9513M2.54933 26.9513V26.969M2.54933 26.9513V26.969M2.54933 26.969V26.9867M2.54933 26.969V26.9867M2.54933 26.9867V27.0045M2.54933 26.9867V27.0045M2.54933 27.0045V27.0222M2.54933 27.0045V27.0222M2.54933 27.0222V27.04M2.54933 27.0222V27.04M2.54933 27.04V27.0577M2.54933 27.04V27.0577M2.54933 27.0577V27.0754M2.54933 27.0577V27.0754M2.54933 27.0754V27.0932M2.54933 27.0754V27.0932M2.54933 27.0932V27.1109M2.54933 27.0932V27.1109M2.54933 27.1109V27.1287M2.54933 27.1109V27.1287M2.54933 27.1287V27.1464M2.54933 27.1287V27.1464M2.54933 27.1464V27.1641M2.54933 27.1464V27.1641M2.54933 27.1641V27.1819M2.54933 27.1641V27.1819M2.54933 27.1819V27.1996M2.54933 27.1819V27.1996M2.54933 27.1996V27.2174M2.54933 27.1996V27.2174M2.54933 27.2174V27.2351M2.54933 27.2174V27.2351M2.54933 27.2351V27.2528M2.54933 27.2351V27.2528M2.54933 27.2528V27.2706M2.54933 27.2528V27.2706M2.54933 27.2706V27.2883M2.54933 27.2706V27.2883M2.54933 27.2883V27.3061M2.54933 27.2883V27.3061M2.54933 27.3061V27.3238M2.54933 27.3061V27.3238M2.54933 27.3238V27.3416M2.54933 27.3238V27.3416M2.54933 27.3416V27.3593M2.54933 27.3416V27.3593M2.54933 27.3593V27.377M2.54933 27.3593V27.377M2.54933 27.377V27.3948M2.54933 27.377V27.3948M2.54933 27.3948V27.4125M2.54933 27.3948V27.4125M2.54933 27.4125V27.4303M2.54933 27.4125V27.4303M2.54933 27.4303V27.448M2.54933 27.4303V27.448M2.54933 27.448V27.4658M2.54933 27.448V27.4658M2.54933 27.4658V27.4835M2.54933 27.4658V27.4835M2.54933 27.4835V27.5012M2.54933 27.4835V27.5012M2.54933 27.5012V27.519M2.54933 27.5012V27.519M2.54933 27.519V27.5367M2.54933 27.519V27.5367M2.54933 27.5367V27.5545M2.54933 27.5367V27.5545M2.54933 27.5545V27.5722M2.54933 27.5545V27.5722M2.54933 27.5722V27.59M2.54933 27.5722V27.59M2.54933 27.59V27.6077M2.54933 27.59V27.6077M2.54933 27.6077V27.6254M2.54933 27.6077V27.6254M2.54933 27.6254V27.6432M2.54933 27.6254V27.6432M2.54933 27.6432V27.6609M2.54933 27.6432V27.6609M2.54933 27.6609V27.6787M2.54933 27.6609V27.6787M2.54933 27.6787V27.6964M2.54933 27.6787V27.6964M2.54933 27.6964V27.7142M2.54933 27.6964V27.7142M2.54933 27.7142V27.7319M2.54933 27.7142V27.7319M2.54933 27.7319V27.7497M2.54933 27.7319V27.7497M2.54933 27.7497V27.7674M2.54933 27.7497V27.7674M2.54933 27.7674V27.7851M2.54933 27.7674V27.7851M2.54933 27.7851V27.8029M2.54933 27.7851V27.8029M2.54933 27.8029V27.8206M2.54933 27.8029V27.8206M2.54933 27.8206V27.8384M2.54933 27.8206V27.8384M2.54933 27.8384V27.8561M2.54933 27.8384V27.8561M2.54933 27.8561V27.8739M2.54933 27.8561V27.8739M2.54933 27.8739V27.8916M2.54933 27.8739V27.8916M2.54933 27.8916V27.9094M2.54933 27.8916V27.9094M2.54933 27.9094V27.9271M2.54933 27.9094V27.9271M2.54933 27.9271V27.9449M2.54933 27.9271V27.9449M2.54933 27.9449V27.9626M2.54933 27.9449V27.9626M2.54933 27.9626V27.9803M2.54933 27.9626V27.9803M2.54933 27.9803V27.9981M2.54933 27.9803V27.9981M2.54933 27.9981V28.0158M2.54933 27.9981V28.0158M2.54933 28.0158V28.0336M2.54933 28.0158V28.0336M2.54933 28.0336V28.0513M2.54933 28.0336V28.0513M2.54933 28.0513V28.0691M2.54933 28.0513V28.0691M2.54933 28.0691V28.0868M2.54933 28.0691V28.0868M2.54933 28.0868V28.1046M2.54933 28.0868V28.1046M2.54933 28.1046V28.1223M2.54933 28.1046V28.1223M2.54933 28.1223V28.1401M2.54933 28.1223V28.1401M2.54933 28.1401V28.1578M2.54933 28.1401V28.1578M2.54933 28.1578V28.1756M2.54933 28.1578V28.1756M2.54933 28.1756V28.1933M2.54933 28.1756V28.1933M2.54933 28.1933V28.2111M2.54933 28.1933V28.2111M2.54933 28.2111V28.2288M2.54933 28.2111V28.2288M2.54933 28.2288V28.2466M2.54933 28.2288V28.2466M2.54933 28.2466V28.2643M2.54933 28.2466V28.2643M2.54933 28.2643V28.282M2.54933 28.2643V28.282M2.54933 28.282V28.2998M2.54933 28.282V28.2998M2.54933 28.2998V28.3175M2.54933 28.2998V28.3175M2.54933 28.3175V28.3353M2.54933 28.3175V28.3353M2.54933 28.3353V28.353M2.54933 28.3353V28.353M2.54933 28.353V28.3708M2.54933 28.353V28.3708M2.54933 28.3708V28.3885M2.54933 28.3708V28.3885M2.54933 28.3885V28.4063M2.54933 28.3885V28.4063M2.54933 28.4063V28.424M2.54933 28.4063V28.424M2.54933 28.424V28.4418M2.54933 28.424V28.4418M2.54933 28.4418V28.4595M2.54933 28.4418V28.4595M2.54933 28.4595V28.4773M2.54933 28.4595V28.4773M2.54933 28.4773V28.495M2.54933 28.4773V28.495M2.54933 28.495V28.5128M2.54933 28.495V28.5128M2.54933 28.5128V28.5305M2.54933 28.5128V28.5305M2.54933 28.5305V28.5483M2.54933 28.5305V28.5483M2.54933 28.5483V28.566M2.54933 28.5483V28.566M2.54933 28.566V28.5838M2.54933 28.566V28.5838M2.54933 28.5838V28.6015M2.54933 28.5838V28.6015M2.54933 28.6015V28.6193M2.54933 28.6015V28.6193M2.54933 28.6193V28.637M2.54933 28.6193V28.637M2.54933 28.637V28.6548M2.54933 28.637V28.6548M2.54933 28.6548V28.6725M2.54933 28.6548V28.6725M2.54933 28.6725V28.6903M2.54933 28.6725V28.6903M2.54933 28.6903V28.708M2.54933 28.6903V28.708M2.54933 28.708V28.7258M2.54933 28.708V28.7258M2.54933 28.7258V28.7436M2.54933 28.7258V28.7436M2.54933 28.7436V28.7613M2.54933 28.7436V28.7613M2.54933 28.7613V28.7791M2.54933 28.7613V28.7791M2.54933 28.7791V28.7968M2.54933 28.7791V28.7968M2.54933 28.7968V28.8146M2.54933 28.7968V28.8146M2.54933 28.8146V28.8323M2.54933 28.8146V28.8323M2.54933 28.8323V28.8501M2.54933 28.8323V28.8501M2.54933 28.8501V28.8678M2.54933 28.8501V28.8678M2.54933 28.8678V28.8856M2.54933 28.8678V28.8856M2.54933 28.8856V28.9033M2.54933 28.8856V28.9033M2.54933 28.9033V28.9211M2.54933 28.9033V28.9211M2.54933 28.9211V28.9388M2.54933 28.9211V28.9388M2.54933 28.9388V28.9566M2.54933 28.9388V28.9566M2.54933 28.9566V28.9743M2.54933 28.9566V28.9743M2.54933 28.9743V28.9921M2.54933 28.9743V28.9921M2.54933 28.9921V29.0098M2.54933 28.9921V29.0098M2.54933 29.0098V29.0276M2.54933 29.0098V29.0276M2.54933 29.0276V29.0454M2.54933 29.0276V29.0454M2.54933 29.0454V29.0631M2.54933 29.0454V29.0631M2.54933 29.0631V29.0809M2.54933 29.0631V29.0809M2.54933 29.0809V29.0986M2.54933 29.0809V29.0986M2.54933 29.0986V29.1164M2.54933 29.0986V29.1164M2.54933 29.1164V29.1341M2.54933 29.1164V29.1341M2.54933 29.1341V29.1519M2.54933 29.1341V29.1519M2.54933 29.1519V29.1696M2.54933 29.1519V29.1696M2.54933 29.1696V29.1874M2.54933 29.1696V29.1874M2.54933 29.1874V29.2052M2.54933 29.1874V29.2052M2.54933 29.2052V29.2229M2.54933 29.2052V29.2229M2.54933 29.2229V29.2407M2.54933 29.2229V29.2407M2.54933 29.2407V29.2584M2.54933 29.2407V29.2584M2.54933 29.2584V29.2762M2.54933 29.2584V29.2762M2.54933 29.2762V29.2939M2.54933 29.2762V29.2939M2.54933 29.2939V29.3117M2.54933 29.2939V29.3117M2.54933 29.3117V29.3295M2.54933 29.3117V29.3295M2.54933 29.3295V29.3472M2.54933 29.3295V29.3472M2.54933 29.3472V29.365M2.54933 29.3472V29.365M2.54933 29.365V29.3827M2.54933 29.365V29.3827M2.54933 29.3827V29.4005M2.54933 29.3827V29.4005M2.54933 29.4005V29.4182M2.54933 29.4005V29.4182M2.54933 29.4182V29.436M2.54933 29.4182V29.436M2.54933 29.436V29.4538M2.54933 29.436V29.4538M2.54933 29.4538V29.4715M2.54933 29.4538V29.4715M2.54933 29.4715V29.4893M2.54933 29.4715V29.4893M2.54933 29.4893V29.507M2.54933 29.4893V29.507M2.54933 29.507V29.5248M2.54933 29.507V29.5248M2.54933 29.5248V29.5426M2.54933 29.5248V29.5426M2.54933 29.5426V29.5603M2.54933 29.5426V29.5603M2.54933 29.5603V29.5781M2.54933 29.5603V29.5781M2.54933 29.5781C2.54933 31.0126 2.88288 32.3771 3.63917 33.6132L2.54933 29.5781ZM28.8052 2.58318C24.5671 2.5326 20.3281 2.54488 16.0933 2.55714C14.7913 2.56091 13.4897 2.56468 12.1886 2.56662C12.1885 2.56662 12.1884 2.56663 12.1883 2.56663L28.8052 2.58318ZM28.7166 40.4673H28.7158C27.2296 40.4695 25.7442 40.4764 24.2594 40.4833C20.1802 40.5023 16.1059 40.5212 12.0336 40.4426C7.99757 40.363 4.7006 38.6863 2.32411 35.3662C1.09103 33.6393 0.5 31.6775 0.5 29.5368V29.5021V29.4674V29.4327V29.398V29.3633V29.3286V29.2939V29.2592V29.2245V29.1898V29.1551V29.1204V29.0857V29.051V29.0163V28.9816V28.947V28.9123V28.8776V28.8429V28.8082V28.7735V28.7388V28.7041V28.6694V28.6347V28.6V28.5653V28.5306V28.4959V28.4613V28.4266V28.3919V28.3572V28.3225V28.2878V28.2531V28.2184V28.1837V28.149V28.1143V28.0796V28.045V28.0103V27.9756V27.9409V27.9062V27.8715V27.8368V27.8021V27.7674V27.7328V27.6981V27.6634V27.6287V27.594V27.5593V27.5246V27.4899V27.4552V27.4206V27.3859V27.3512V27.3165V27.2818V27.2471V27.2124V27.1778V27.1431V27.1084V27.0737V27.039V27.0043V26.9696V26.9349V26.9003V26.8656V26.8309V26.7962V26.7615V26.7268V26.6922V26.6575V26.6228V26.5881V26.5534V26.5187V26.484V26.4494V26.4147V26.38V26.3453V26.3106V26.2759V26.2413V26.2066V26.1719V26.1372V26.1025V26.0679V26.0332V25.9985V25.9638V25.9291V25.8944V25.8598V25.8251V25.7904V25.7557V25.721V25.6864V25.6517V25.617V25.5823V25.5476V25.5129V25.4783V25.4436V25.4089V25.3742V25.3395V25.3049V25.2702V25.2355V25.2008V25.1661V25.1315V25.0968V25.0621V25.0274V24.9928V24.9581V24.9234V24.8887V24.854V24.8194V24.7847V24.75V24.7153V24.6806V24.646V24.6113V24.5766V24.5419V24.5073V24.4726V24.4379V24.4032V24.3685V24.3339V24.2992V24.2645V24.2298V24.1952V24.1605V24.1258V24.0911V24.0564V24.0218V23.9871V23.9524V23.9177V23.8831V23.8484V23.8137V23.779V23.7444V23.7097V23.675V23.6403V23.6057V23.571V23.5363V23.5016V23.4669V23.4323V23.3976V23.3629V23.3282V23.2936V23.2589V23.2242V23.1895V23.1549V23.1202V23.0855V23.0508V23.0162V22.9815V22.9468V22.9121V22.8775V22.8428V22.8081V22.7734V22.7388V22.7041V22.6694V22.6347V22.6001V22.5654V22.5307V22.496V22.4614V22.4267V22.392V22.3573V22.3227V22.288V22.2533V22.2187V22.184V22.1493V22.1146V22.08V22.0453V22.0106V21.9759V21.9413V21.9066V21.8719V21.8372V21.8026V21.7679V21.7332V21.6985V21.6639V21.6292V21.5945V21.5599V21.5252V21.4905V21.4558V21.4212V21.3865V21.3518V21.3171V21.2825V21.2478V21.2131V21.1784V21.1438V21.1091V21.0744V21.0397V21.0051V20.9704V20.9357V20.9011V20.8664V20.8317V20.797V20.7624V20.7277V20.693V20.6583V20.6237V20.589V20.5543V20.5196V20.485V20.4503V20.4156V20.381V20.3463V20.3116V20.2769V20.2423V20.2076V20.1729V20.1382V20.1036V20.0689V20.0342V19.9995V19.9649V19.9302V19.8955V19.8609V19.8262V19.7915V19.7568V19.7222V19.6875V19.6528V19.6181V19.5835V19.5488V19.5141V19.4794V19.4448V19.4101V19.3754V19.3407V19.3061V19.2714V19.2367V19.202V19.1674V19.1327V19.098V19.0634V19.0287V18.994V18.9593V18.9247V18.89V18.8553V18.8206V18.786V18.7513V18.7166V18.6819V18.6473V18.6126V18.5779V18.5432V18.5086V18.4739V18.4392V18.4045V18.3699V18.3352V18.3005V18.2658V18.2312V18.1965V18.1618V18.1271V18.0925V18.0578V18.0231V17.9884V17.9538V17.9191V17.8844V17.8497V17.8151V17.7804V17.7457V17.711V17.6764V17.6417V17.607V17.5723V17.5376V17.503V17.4683V17.4336V17.3989V17.3643V17.3296V17.2949V17.2602V17.2256V17.1909V17.1562V17.1215V17.0868V17.0522V17.0175V16.9828V16.9481V16.9135V16.8788V16.8441V16.8094V16.7747V16.7401V16.7054V16.6707V16.636V16.6014V16.5667V16.532V16.4973V16.4626V16.428V16.3933V16.3586V16.3239V16.2892V16.2546V16.2199V16.1852V16.1505V16.1159V16.0812V16.0465V16.0118V15.9771V15.9425V15.9078V15.8731V15.8384V15.8037V15.769V15.7344V15.6997V15.665V15.6303V15.5956V15.561V15.5263V15.4916V15.4569V15.4222V15.3876V15.3529V15.3182V15.2835V15.2488V15.2141V15.1795V15.1448V15.1101V15.0754V15.0407V15.006V14.9714V14.9367V14.902V14.8673V14.8326V14.7979V14.7633V14.7286V14.6939V14.6592V14.6245V14.5898V14.5552V14.5205V14.4858V14.4511V14.4164V14.3817V14.347V14.3124V14.2777V14.243V14.2083V14.1736V14.1389V14.1042V14.0696V14.0349V14.0002V13.9655V13.9308V13.8961V13.8614V13.8267V13.7921V13.7574V13.7227V13.688V13.6533V13.6186V13.5839V13.5492V13.5145V13.4799V13.4452V13.4105V13.3758V13.3411V13.3064V13.2717V13.237V13.2023V13.1677V13.133V13.0983V13.0636V13.0289V12.9942V12.9595V12.9248V12.8901V12.8554V12.8207V12.786V12.7514V12.7167V12.682V12.6473V12.6126V12.5779V12.5432V12.5085V12.4738V12.4391V12.4044V12.3697V12.335V12.3003V12.2656V12.2309V12.1962V12.1616V12.1269V12.0922V12.0575V12.0228V11.9881V11.9534V11.9187V11.884V11.8493V11.8146V11.7799C0.5 9.44915 1.06679 7.49314 2.12043 5.85976C3.17568 4.2239 4.73743 2.8837 6.76873 1.81639C8.50345 0.910258 10.3965 0.518911 12.3884 0.510787C13.9315 0.510786 15.4744 0.508089 17.0172 0.505392C20.8732 0.498651 24.7279 0.491912 28.5798 0.527285L28.5804 0.52729C32.627 0.559198 35.9727 2.09761 38.4505 5.33572C39.8184 7.12709 40.48 9.18302 40.48 11.4578V11.4754V11.493V11.5106V11.5283V11.5459V11.5635V11.5811V11.5987V11.6163V11.6339V11.6516V11.6692V11.6868V11.7044V11.722V11.7397V11.7573V11.7749V11.7925V11.8101V11.8277V11.8454V11.863V11.8806V11.8982V11.9158V11.9335V11.9511V11.9687V11.9863V12.0039V12.0216V12.0392V12.0568V12.0744V12.092V12.1097V12.1273V12.1449V12.1625V12.1802V12.1978V12.2154V12.233V12.2506V12.2683V12.2859V12.3035V12.3211V12.3388V12.3564V12.374V12.3916V12.4093V12.4269V12.4445V12.4621V12.4798V12.4974V12.515V12.5326V12.5503V12.5679V12.5855V12.6031V12.6208V12.6384V12.656V12.6737V12.6913V12.7089V12.7265V12.7442V12.7618V12.7794V12.797V12.8147V12.8323V12.8499V12.8676V12.8852V12.9028V12.9204V12.9381V12.9557V12.9733V12.991V13.0086V13.0262V13.0439V13.0615V13.0791V13.0967V13.1144V13.132V13.1496V13.1673V13.1849V13.2025V13.2202V13.2378V13.2554V13.2731V13.2907V13.3083V13.326V13.3436V13.3612V13.3789V13.3965V13.4141V13.4318V13.4494V13.467V13.4847V13.5023V13.5199V13.5376V13.5552V13.5728V13.5905V13.6081V13.6257V13.6434V13.661V13.6787V13.6963V13.7139V13.7316V13.7492V13.7668V13.7845V13.8021V13.8197V13.8374V13.855V13.8727V13.8903V13.9079V13.9256V13.9432V13.9608V13.9785V13.9961V14.0138V14.0314V14.049V14.0667V14.0843V14.102V14.1196V14.1372V14.1549V14.1725V14.1901V14.2078V14.2254V14.2431V14.2607V14.2783V14.296V14.3136V14.3313V14.3489V14.3666V14.3842V14.4018V14.4195V14.4371V14.4548V14.4724V14.49V14.5077V14.5253V14.543V14.5606V14.5783V14.5959V14.6135V14.6312V14.6488V14.6665V14.6841V14.7018V14.7194V14.737V14.7547V14.7723V14.79V14.8076V14.8253V14.8429V14.8606V14.8782V14.8958V14.9135V14.9311V14.9488V14.9664V14.9841V15.0017V15.0194V15.037V15.0546V15.0723V15.0899V15.1076V15.1252V15.1429V15.1605V15.1782V15.1958V15.2135V15.2311V15.2488V15.2664V15.2841V15.3017V15.3193V15.337V15.3546V15.3723V15.3899V15.4076V15.4252V15.4429V15.4605V15.4782V15.4958V15.5135V15.5311V15.5488V15.5664V15.5841V15.6017V15.6194V15.637V15.6547V15.6723V15.69V15.7076V15.7253V15.7429V15.7606V15.7782V15.7959V15.8135V15.8312V15.8488V15.8665V15.8841V15.9018V15.9194V15.9371V15.9547V15.9724V15.99V16.0077V16.0253V16.043V16.0606V16.0783V16.0959V16.1136V16.1312V16.1489V16.1665V16.1842V16.2019V16.2195V16.2372V16.2548V16.2725V16.2901V16.3078V16.3254V16.3431V16.3607V16.3784V16.396V16.4137V16.4313V16.449V16.4666V16.4843V16.502V16.5196V16.5373V16.5549V16.5726V16.5902V16.6079V16.6255V16.6432V16.6608V16.6785V16.6962V16.7138V16.7315V16.7491V16.7668V16.7844V16.8021V16.8197V16.8374V16.855V16.8727V16.8904V16.908V16.9257V16.9433V16.961V16.9786V16.9963V17.014V17.0316V17.0493V17.0669V17.0846V17.1022V17.1199V17.1375V17.1552V17.1729V17.1905V17.2082V17.2258V17.2435V17.2611V17.2788V17.2965V17.3141V17.3318V17.3494V17.3671V17.3847V17.4024V17.4201V17.4377V17.4554V17.473V17.4907V17.5084V17.526V17.5437V17.5613V17.579V17.5966V17.6143V17.632V17.6496V17.6673V17.6849V17.7026V17.7203V17.7379V17.7556V17.7732V17.7909V17.8085V17.8262V17.8439V17.8615V17.8792V17.8968V17.9145V17.9322V17.9498V17.9675V17.9851V18.0028V18.0205V18.0381V18.0558V18.0734V18.0911V18.1088V18.1264V18.1441V18.1617V18.1794V18.1971V18.2147V18.2324V18.25V18.2677V18.2854V18.303V18.3207V18.3383V18.356V18.3737V18.3913V18.409V18.4266V18.4443V18.462V18.4796V18.4973V18.515V18.5326V18.5503V18.5679V18.5856V18.6033V18.6209V18.6386V18.6562V18.6739V18.6916V18.7092V18.7269V18.7445V18.7622V18.7799V18.7975V18.8152V18.8329V18.8505V18.8682V18.8858V18.9035V18.9212V18.9388V18.9565V18.9741V18.9918V19.0095V19.0271V19.0448V19.0625V19.0801V19.0978V19.1154V19.1331V19.1508V19.1684V19.1861V19.2038V19.2214V19.2391V19.2567V19.2744V19.2921V19.3097V19.3274V19.3451V19.3627V19.3804V19.398V19.4157V19.4334V19.451V19.4687V19.4864V19.504V19.5217V19.5393V19.557V19.5747V19.5923V19.61V19.6277V19.6453V19.663V19.6807V19.6983V19.716V19.7336V19.7513V19.769V19.7866V19.8043V19.822V19.8396V19.8573V19.8749V19.8926V19.9103V19.9279V19.9456V19.9633V19.9809V19.9986V20.0162V20.0339V20.0516V20.0692V20.0869V20.1046V20.1222V20.1399V20.1576V20.1752V20.1929V20.2105V20.2282V20.2459V20.2635V20.2812V20.2989V20.3165V20.3342V20.3519V20.3695V20.3872V20.4048V20.4225V20.4402V20.4578V20.4755V20.4932C40.48 21.3609 40.4747 22.2324 40.4693 23.106C40.4571 25.1118 40.4447 27.1285 40.4967 29.1364C40.6147 33.9861 37.57 37.7499 33.6509 39.4342C32.0737 40.1109 30.4218 40.4673 28.7166 40.4673Z" fill="white" stroke="black"/>
<path d="M20.536 29.248C15.2058 29.248 10.9087 25.0028 10.9004 19.717C10.8921 14.5139 15.2224 10.2522 20.5194 10.2522C25.833 10.244 30.1467 14.4973 30.155 19.7418C30.155 24.978 25.8496 29.2397 20.536 29.248ZM20.536 26.1921C24.1637 26.1921 27.1056 23.2932 27.0974 19.7253C27.0891 16.1904 24.1472 13.2998 20.536 13.2998C16.9082 13.2998 13.9497 16.1822 13.9497 19.7418C13.958 23.3097 16.9082 26.2004 20.536 26.1921Z" fill="white"/>
<path d="M31.2703 7.36157C32.3859 7.36157 33.2949 8.31136 33.2949 9.47588C33.2867 10.6404 32.3694 11.5819 31.2538 11.5737C30.1547 11.5654 29.254 10.6239 29.254 9.48414C29.2457 8.31962 30.1547 7.36157 31.2703 7.36157Z" fill="white"/>
</svg>
