<svg width="41" height="41" viewBox="0 0 41 41" fill="none" xmlns="http://www.w3.org/2000/svg">
<path d="M19.9709 13.9531C19.2898 13.9466 18.6736 13.9537 18.1516 14.0001C17.6532 14.0444 17.2849 14.1214 17.0406 14.2292C17.2847 14.3407 17.5577 14.5149 17.7581 14.7879C18.0416 15.1737 18.1361 15.7329 18.1746 16.1066C18.1956 16.3095 18.203 16.4926 18.2052 16.6248C18.2063 16.6913 18.2061 16.7456 18.2056 16.7841C18.2054 16.799 18.2052 16.8116 18.205 16.8216L18.206 16.8378C18.2076 16.8635 18.2097 16.9008 18.2122 16.9481C18.2172 17.0427 18.2233 17.1774 18.2283 17.3402C18.2382 17.6647 18.2435 18.1049 18.2244 18.5611C18.2054 19.0128 18.1618 19.5011 18.0673 19.9137C18.0202 20.1196 17.9562 20.3258 17.8652 20.5055C17.7772 20.6795 17.6398 20.8769 17.4204 20.9969L17.4197 20.9972C17.1603 21.1387 16.8691 21.1601 16.5757 21.0516C16.3103 20.9536 16.0645 20.7578 15.8278 20.5104C15.3532 20.0142 14.7726 19.1548 14.0106 17.8388C14.0105 17.8387 14.0105 17.8387 14.0105 17.8386L14.4432 17.5881C13.6623 16.2407 13.1037 14.7926 13.1037 14.7926L19.9709 13.9531ZM19.9709 13.9531C21.0094 13.964 21.2908 14.0239 21.6641 14.1139L19.9709 13.9531ZM12.6354 14.974C12.6394 14.9816 12.6427 14.988 12.6451 14.9929L14.221 24.7541C12.6552 23.124 11.1528 20.6562 10.0321 18.5655C9.47473 17.5257 9.01723 16.5897 8.69919 15.9139C8.54023 15.5761 8.41627 15.3036 8.33225 15.1161C8.29025 15.0223 8.25824 14.9498 8.23684 14.901L8.22185 14.8666C8.22136 14.8643 8.22086 14.8618 8.22035 14.8592C8.21487 14.8312 8.20916 14.7942 8.20692 14.7558C8.2058 14.7366 8.20573 14.7202 8.20629 14.7065C8.24088 14.6934 8.2874 14.6812 8.34251 14.6717C8.40111 14.6616 8.45742 14.6565 8.49969 14.654C8.52038 14.6528 8.53661 14.6523 8.54673 14.6521L8.55607 14.652L8.55607 14.6521L8.56914 14.6519L12.1275 14.5945C12.1514 14.5999 12.1846 14.6082 12.2226 14.62C12.3113 14.6475 12.3981 14.6855 12.4582 14.7296L12.4584 14.7298C12.4838 14.7484 12.531 14.8013 12.5827 14.8831C12.6052 14.9185 12.6232 14.9509 12.6354 14.974ZM32.7462 14.705C32.7476 14.706 32.7481 14.7065 32.7481 14.7065C32.748 14.7065 32.7473 14.706 32.7462 14.705ZM32.7287 14.695C32.7308 14.7287 32.7286 14.7991 32.6967 14.9216C32.6504 15.0989 32.5549 15.3363 32.395 15.6419C32.0756 16.2522 31.5361 17.0658 30.7577 18.1034C30.4685 18.4887 30.2021 18.8352 29.9645 19.1443C29.6866 19.5058 29.4479 19.8163 29.2577 20.0783C28.9095 20.5579 28.6358 20.9872 28.5518 21.4109C28.4543 21.9023 28.6199 22.3037 28.9092 22.6787C29.1638 23.0088 29.5599 23.3763 30.0442 23.8258C30.0688 23.8486 30.0936 23.8716 30.1186 23.8948L30.1187 23.8949C31.1221 24.8259 31.7104 25.5043 32.0522 25.9542C32.3264 26.3153 32.4368 26.5193 32.4979 26.6322C32.5125 26.6591 32.5243 26.6809 32.5348 26.6983C32.7083 26.9864 32.6944 27.1211 32.6864 27.156C32.6793 27.1865 32.6555 27.2347 32.5562 27.2944C32.4541 27.3557 32.319 27.399 32.192 27.4259C32.1317 27.4386 32.0799 27.4464 32.0444 27.4508C32.0276 27.4528 32.0148 27.4542 32.0068 27.4549L28.6448 27.5129L28.6022 27.5136L28.5675 27.5202C28.5666 27.5203 28.5654 27.5204 28.5639 27.5206C28.5552 27.5216 28.5368 27.5233 28.5097 27.5242C28.4555 27.5258 28.3664 27.5239 28.2493 27.5051C28.0173 27.4679 27.6653 27.3634 27.2475 27.0765L27.2472 27.0763C26.975 26.8896 26.6894 26.616 26.3873 26.2916C26.209 26.1001 26.0463 25.915 25.8811 25.7272C25.7546 25.5833 25.6267 25.4378 25.4893 25.2866C25.1965 24.9645 24.8831 24.6429 24.5663 24.4225C24.2587 24.2085 23.8367 24.0129 23.3776 24.1582C22.9768 24.285 22.715 24.5839 22.5477 24.8789C22.3803 25.1741 22.28 25.5116 22.2174 25.8095C22.154 26.1117 22.1242 26.3992 22.1099 26.6088C22.1028 26.7144 22.0994 26.8021 22.0979 26.8643C22.0971 26.8954 22.0968 26.9203 22.0966 26.938L22.0966 26.959L22.0966 26.9653L22.0966 26.9673L22.0966 26.9681L22.0966 26.9684C22.0966 26.9685 22.0966 26.9686 22.5966 26.9645L22.0966 26.9686L22.0968 26.9888L22.0983 27.0058L22.0983 27.0061L22.0983 27.0062L22.0987 27.0119C22.099 27.0187 22.0996 27.0306 22.0997 27.0463C22.1001 27.0785 22.0989 27.1225 22.0935 27.1697C22.0824 27.2672 22.0608 27.3115 22.056 27.3214C22.055 27.3234 22.0547 27.3239 22.0554 27.3232L22.0551 27.3235C22.0312 27.3494 21.963 27.3904 21.8483 27.4229C21.7987 27.4369 21.7533 27.4457 21.7207 27.4509C21.7107 27.4525 21.7022 27.4537 21.6956 27.4545H20.2088H20.1919L20.1764 27.4556L20.1763 27.4556L20.1758 27.4556L20.1755 27.4557L20.1751 27.4557L20.1729 27.4558L20.152 27.4567C20.1319 27.4574 20.0998 27.4583 20.0565 27.4584C19.9699 27.4586 19.839 27.4558 19.6708 27.4435C19.3343 27.4187 18.8508 27.3555 18.2776 27.2009C17.1334 26.8922 15.6314 26.2193 14.2214 24.7545L32.7287 14.695ZM8.21128 14.6659C8.2113 14.6659 8.21119 14.6663 8.21092 14.6671L8.21128 14.6659ZM16.604 14.572C16.6035 14.5729 16.6032 14.5734 16.6032 14.5734L16.604 14.572ZM0.5 7.62926C0.5 3.72612 3.72612 0.5 7.62926 0.5H33.3707C37.2739 0.5 40.5 3.72612 40.5 7.62926V33.3707C40.5 37.2739 37.2739 40.5 33.3707 40.5H7.62926C3.72612 40.5 0.5 37.2739 0.5 33.3707V7.62926ZM33.3707 3.22727H7.62926C5.18858 3.22727 3.22727 5.18858 3.22727 7.62926V33.3707C3.22727 35.8114 5.18858 37.7727 7.62926 37.7727H33.3707C35.8114 37.7727 37.7727 35.8114 37.7727 33.3707V7.62926C37.7727 5.18858 35.8114 3.22727 33.3707 3.22727Z" fill="white" stroke="black"/>
</svg>
